<svg width="13" height="15" viewBox="0 0 13 15" fill="none" xmlns="http://www.w3.org/2000/svg">
<path d="M6.5001 0C4.34964 0 2.6001 1.74954 2.6001 3.9C2.6001 6.05046 4.34964 7.8 6.5001 7.8C8.65056 7.8 10.4001 6.05046 10.4001 3.9C10.4001 1.74954 8.65056 0 6.5001 0Z" fill="#86868B"/>
<path d="M11.3524 10.3472C10.2846 9.26306 8.86915 8.66602 7.36667 8.66602H5.63333C4.13088 8.66602 2.71538 9.26306 1.64765 10.3472C0.585144 11.426 0 12.8501 0 14.3571C0 14.5964 0.194018 14.7905 0.433333 14.7905H12.5667C12.806 14.7905 13 14.5964 13 14.3571C13 12.8501 12.4149 11.426 11.3524 10.3472Z" fill="#86868B"/>
</svg>
