<svg width="34" height="34" viewBox="0 0 34 34" fill="none" xmlns="http://www.w3.org/2000/svg">
<rect x="0.510638" y="0.510638" width="32.6809" height="32.6809" rx="3.57447" stroke="white" stroke-width="1.02128"/>
<g clip-path="url(#clip0_517_2202)">
<path d="M16.8556 21.6263C16.8556 21.8961 16.6997 22.1413 16.4556 22.2557C16.3613 22.3004 16.2602 22.3219 16.1598 22.3219C16.0007 22.3219 15.8431 22.2673 15.7159 22.1617L11.9127 19.0102H9.88707C9.50293 19.0106 9.19141 18.6989 9.19141 18.3147V15.5431C9.19141 15.1588 9.50293 14.8473 9.88707 14.8473H11.9128L15.716 11.6958C15.9238 11.5235 16.212 11.4868 16.4558 11.6021C16.6997 11.7165 16.8558 11.9618 16.8558 12.2316L16.8556 21.6263ZM19.5291 20.5392C19.5121 20.5404 19.4958 20.541 19.479 20.541C19.2953 20.541 19.1181 20.4684 18.9872 20.3373L18.8942 20.244C18.6502 20.0005 18.6215 19.6147 18.827 19.3377C19.348 18.6353 19.6229 17.8026 19.6229 16.9292C19.6229 15.9896 19.3108 15.1084 18.72 14.3806C18.4951 14.104 18.5158 13.7022 18.7679 13.4503L18.8608 13.3573C18.9997 13.2183 19.186 13.1426 19.3875 13.1546C19.5838 13.1645 19.767 13.2569 19.8915 13.409C20.711 14.4117 21.1439 15.6292 21.1439 16.9293C21.1439 18.1402 20.761 19.2928 20.0366 20.2619C19.9155 20.4235 19.7305 20.5249 19.5291 20.5392ZM22.4053 22.6891C22.2795 22.8378 22.0975 22.927 21.9028 22.9353C21.8932 22.9356 21.8835 22.9359 21.8736 22.9359C21.6894 22.9359 21.5125 22.8631 21.3816 22.7322L21.2902 22.6409C21.0349 22.3856 21.0176 21.9775 21.2497 21.7012C22.3717 20.3668 22.9898 18.6722 22.9898 16.9292C22.9898 15.1161 22.3281 13.3708 21.1269 12.0147C20.8834 11.7394 20.8957 11.3227 21.1549 11.0625L21.2461 10.9711C21.3815 10.8351 21.5573 10.7602 21.759 10.7666C21.9505 10.7721 22.1316 10.8567 22.2589 10.9999C23.7108 12.6346 24.5106 14.7406 24.5106 16.9292C24.5109 19.0349 23.7632 21.0806 22.4053 22.6891Z" fill="white"/>
</g>
<defs>
<clipPath id="clip0_517_2202">
<rect width="15.3191" height="15.3191" fill="white" transform="translate(9.19141 9.19141)"/>
</clipPath>
</defs>
</svg>
