<svg width="33" height="33" viewBox="0 0 33 33" fill="none" xmlns="http://www.w3.org/2000/svg">
<rect x="0.488713" y="0.488713" width="31.2777" height="31.2777" rx="3.42099" stroke="white" stroke-width="0.977427"/>
<g clip-path="url(#clip0_517_2197)">
<path d="M23.185 15.3407C23.1846 15.3404 23.1843 15.3401 23.184 15.3397L17.2373 9.39328C16.9838 9.13969 16.6468 9 16.2883 9C15.9299 9 15.5929 9.13958 15.3393 9.39317L9.39574 15.3366C9.39374 15.3386 9.39174 15.3407 9.38973 15.3427C8.86922 15.8662 8.87011 16.7156 9.39229 17.2378C9.63086 17.4765 9.94595 17.6148 10.2828 17.6292C10.2965 17.6305 10.3103 17.6312 10.3242 17.6312H10.5612V22.0074C10.5612 22.8734 11.2658 23.578 12.132 23.578H14.4585C14.6943 23.578 14.8856 23.3868 14.8856 23.1509V19.72C14.8856 19.3248 15.2071 19.0034 15.6022 19.0034H16.9745C17.3696 19.0034 17.6911 19.3248 17.6911 19.72V23.1509C17.6911 23.3868 17.8823 23.578 18.1182 23.578H20.4447C21.3109 23.578 22.0155 22.8734 22.0155 22.0074V17.6312H22.2352C22.5936 17.6312 22.9306 17.4916 23.1843 17.238C23.707 16.715 23.7073 15.8641 23.185 15.3407Z" fill="white"/>
</g>
<defs>
<clipPath id="clip0_517_2197">
<rect width="14.578" height="14.578" fill="white" transform="translate(9 9)"/>
</clipPath>
</defs>
</svg>
