<svg width="33" height="33" viewBox="0 0 33 33" fill="none" xmlns="http://www.w3.org/2000/svg">
<rect x="0.488713" y="0.488713" width="31.2777" height="31.2777" rx="3.42099" stroke="white" stroke-width="0.977427"/>
<path d="M22.6331 10H9.43978C9.19702 10 9 10.1961 9 10.4398V11.3193C9 11.5621 9.19702 11.7591 9.43978 11.7591H9.87955V18.7955C9.87955 19.2811 10.2745 19.6751 10.7591 19.6751H15.5967V20.7587L14.4735 21.5081C14.2712 21.6427 14.2166 21.9162 14.3512 22.1176C14.4849 22.319 14.7567 22.3736 14.9607 22.2399L16.0364 21.523L17.1121 22.2399C17.1869 22.29 17.2713 22.3138 17.3558 22.3138C17.4974 22.3138 17.6363 22.2452 17.7217 22.1176C17.8562 21.9162 17.8017 21.6427 17.5994 21.5081L16.4762 20.7587V19.6751H21.3138C21.7993 19.6751 22.1933 19.2811 22.1933 18.7955V11.7591H22.6331C22.8759 11.7591 23.0729 11.5621 23.0729 11.3193V10.4398C23.0729 10.1961 22.8759 10 22.6331 10ZM12.5182 17.916H11.6387V15.2773H12.5182V17.916ZM14.2773 17.916H13.3978V13.5182H14.2773V17.916ZM18.2353 17.916C17.0224 17.916 16.0364 16.9291 16.0364 15.7171C16.0364 14.6555 16.7929 13.7671 17.7955 13.5631V16.1569H20.3894C20.1853 17.1596 19.2978 17.916 18.2353 17.916ZM18.6751 15.2773V13.5631C19.5353 13.7381 20.2143 14.4171 20.3894 15.2773H18.6751Z" fill="white"/>
</svg>
