<svg width="34" height="35" viewBox="0 0 34 35" fill="none" xmlns="http://www.w3.org/2000/svg">
<rect x="0.510638" y="1.50869" width="32.6809" height="32.6809" rx="3.57447" stroke="white" stroke-width="1.02128"/>
<path d="M21.5057 8.99799H12.5079C11.1228 8.99799 10 10.1208 10 11.5059V23.49C10 24.8751 11.1228 25.998 12.5079 25.998H21.5057C22.8908 25.998 24.0136 24.8751 24.0136 23.49V11.5059C24.0136 10.1208 22.8908 8.99799 21.5057 8.99799ZM14.9348 13.7419H19.0788C19.3984 13.7416 19.6577 14.0005 19.658 14.3202C19.6582 14.6398 19.3993 14.8992 19.0797 14.8994C19.0794 14.8994 19.0791 14.8994 19.0788 14.8994H14.9348C14.6152 14.8994 14.3561 14.6403 14.3561 14.3206C14.3561 14.001 14.6152 13.7419 14.9348 13.7419ZM20.57 21.2541H13.4436C13.124 21.2541 12.8648 20.995 12.8648 20.6754C12.8648 20.3557 13.124 20.0966 13.4436 20.0966H20.57C20.8897 20.0966 21.1488 20.3557 21.1488 20.6754C21.1488 20.995 20.8897 21.2541 20.57 21.2541ZM20.57 18.0767H13.4436C13.124 18.0767 12.8648 17.8176 12.8648 17.498C12.8648 17.1784 13.124 16.9192 13.4436 16.9192H20.57C20.8897 16.9192 21.1488 17.1784 21.1488 17.498C21.1488 17.8176 20.8897 18.0767 20.57 18.0767Z" fill="white"/>
</svg>
