<svg width="33" height="33" viewBox="0 0 33 33" fill="none" xmlns="http://www.w3.org/2000/svg">
<rect x="0.488713" y="0.488713" width="31.2777" height="31.2777" rx="3.42099" stroke="white" stroke-width="0.977427"/>
<g clip-path="url(#clip0_517_2200)">
<path d="M23.474 10.5664C23.1934 10.2859 22.8564 10.1458 22.4624 10.1458H10.4322C10.0384 10.1458 9.70118 10.2859 9.42067 10.5664C9.14024 10.847 9 11.1841 9 11.578V21.3168C9 21.7107 9.14024 22.0475 9.42067 22.3282C9.70118 22.6088 10.0383 22.7488 10.4322 22.7488H22.4624C22.8564 22.7488 23.1934 22.6088 23.474 22.3282C23.7544 22.0475 23.8945 21.7105 23.8945 21.3168V11.578C23.8945 11.1841 23.7544 10.8469 23.474 10.5664ZM13.5831 21.3164C13.5831 21.4002 13.5561 21.4687 13.5024 21.5225C13.4487 21.5761 13.3801 21.6028 13.2965 21.6028H10.4322C10.3487 21.6028 10.2801 21.5761 10.2263 21.5225C10.1726 21.4687 10.1458 21.4002 10.1458 21.3164V19.5978C10.1458 19.5141 10.1726 19.4456 10.2263 19.3921C10.2801 19.3382 10.3487 19.3114 10.4322 19.3114H13.2966C13.3802 19.3114 13.4489 19.3382 13.5025 19.3921C13.5561 19.4456 13.583 19.5141 13.583 19.5978L13.5831 21.3164ZM13.5831 17.8794C13.5831 17.9629 13.5561 18.0316 13.5024 18.0852C13.4487 18.1389 13.3801 18.1657 13.2965 18.1657H10.4322C10.3487 18.1657 10.2801 18.1389 10.2263 18.0852C10.1726 18.0316 10.1458 17.9629 10.1458 17.8794V16.1608C10.1458 16.0772 10.1726 16.0086 10.2263 15.9549C10.2801 15.9013 10.3487 15.8745 10.4322 15.8745H13.2966C13.3802 15.8745 13.4487 15.9013 13.5025 15.9549C13.5561 16.0086 13.583 16.0772 13.583 16.1608L13.5831 17.8794ZM13.5831 14.4422C13.5831 14.5258 13.5561 14.5944 13.5024 14.6481C13.4487 14.7017 13.3801 14.7286 13.2965 14.7286H10.4322C10.3487 14.7286 10.2801 14.7017 10.2263 14.6481C10.1726 14.5943 10.1458 14.5258 10.1458 14.4422V12.7236C10.1458 12.64 10.1726 12.5714 10.2263 12.5177C10.2801 12.464 10.3487 12.4372 10.4322 12.4372H13.2966C13.3802 12.4372 13.4487 12.464 13.5025 12.5177C13.5561 12.5714 13.583 12.64 13.583 12.7236L13.5831 14.4422ZM18.166 21.3164C18.166 21.4002 18.1392 21.4687 18.0856 21.5225C18.032 21.5761 17.9634 21.6028 17.8797 21.6028H15.0151C14.9316 21.6028 14.8629 21.5761 14.8092 21.5225C14.7555 21.4687 14.7287 21.4002 14.7287 21.3164V19.5978C14.7287 19.5141 14.7555 19.4456 14.8092 19.3921C14.8629 19.3382 14.9316 19.3114 15.0151 19.3114H17.8795C17.9632 19.3114 18.0319 19.3382 18.0855 19.3921C18.1389 19.4456 18.1658 19.5141 18.1658 19.5978V21.3164L18.166 21.3164ZM18.166 17.8794C18.166 17.9629 18.1392 18.0316 18.0856 18.0852C18.032 18.1389 17.9634 18.1657 17.8797 18.1657H15.0151C14.9316 18.1657 14.8629 18.1389 14.8092 18.0852C14.7555 18.0316 14.7287 17.9629 14.7287 17.8794V16.1608C14.7287 16.0772 14.7555 16.0086 14.8092 15.9549C14.8629 15.9013 14.9316 15.8745 15.0151 15.8745H17.8795C17.9632 15.8745 18.0319 15.9013 18.0855 15.9549C18.1389 16.0086 18.1658 16.0772 18.1658 16.1608V17.8794H18.166ZM18.166 14.4422C18.166 14.5258 18.1392 14.5944 18.0856 14.6481C18.032 14.7017 17.9634 14.7286 17.8797 14.7286H15.0151C14.9316 14.7286 14.8629 14.7017 14.8092 14.6481C14.7555 14.5943 14.7287 14.5258 14.7287 14.4422V12.7236C14.7287 12.64 14.7555 12.5714 14.8092 12.5177C14.8629 12.464 14.9316 12.4372 15.0151 12.4372H17.8795C17.9632 12.4372 18.0319 12.464 18.0855 12.5177C18.1389 12.5714 18.1658 12.64 18.1658 12.7236V14.4422H18.166ZM22.7488 21.3164C22.7488 21.4002 22.722 21.4687 22.6684 21.5225C22.6146 21.5761 22.5459 21.6028 22.4624 21.6028H19.5983C19.5145 21.6028 19.4459 21.5761 19.3924 21.5225C19.3387 21.4687 19.3121 21.4002 19.3121 21.3164V19.5978C19.3121 19.5141 19.3387 19.4456 19.3924 19.3921C19.4459 19.3382 19.5145 19.3114 19.5983 19.3114H22.4624C22.5459 19.3114 22.6146 19.3382 22.6684 19.3921C22.722 19.4456 22.7488 19.5141 22.7488 19.5978V21.3164ZM22.7488 17.8794C22.7488 17.9629 22.722 18.0316 22.6684 18.0852C22.6146 18.1389 22.5459 18.1657 22.4624 18.1657H19.5983C19.5145 18.1657 19.4459 18.1389 19.3924 18.0852C19.3387 18.0316 19.3121 17.9629 19.3121 17.8794V16.1608C19.3121 16.0772 19.3387 16.0086 19.3924 15.9549C19.4459 15.9013 19.5145 15.8745 19.5983 15.8745H22.4624C22.5459 15.8745 22.6146 15.9013 22.6684 15.9549C22.722 16.0086 22.7488 16.0772 22.7488 16.1608V17.8794ZM22.7488 14.4422C22.7488 14.5258 22.722 14.5944 22.6684 14.6481C22.6146 14.7017 22.5459 14.7286 22.4624 14.7286H19.5983C19.5145 14.7286 19.4459 14.7017 19.3924 14.6481C19.3387 14.5943 19.3121 14.5258 19.3121 14.4422V12.7236C19.3121 12.64 19.3387 12.5714 19.3924 12.5177C19.4459 12.464 19.5145 12.4372 19.5983 12.4372H22.4624C22.5459 12.4372 22.6146 12.464 22.6684 12.5177C22.722 12.5714 22.7488 12.64 22.7488 12.7236V14.4422Z" fill="white"/>
</g>
<defs>
<clipPath id="clip0_517_2200">
<rect width="14.8945" height="14.8945" fill="white" transform="translate(9 9)"/>
</clipPath>
</defs>
</svg>
